<svg xmlns="http://www.w3.org/2000/svg" xmlns:xlink="http://www.w3.org/1999/xlink" viewBox="0 0 16 16" version="1.1">
<g id="surface1">
<path style="stroke:#666666;fill:#666666;stroke-width:0.1" d="M 9 1.949219 L 4.351563 5 L 2.5 5 C 1.675781 5 1 5.675781 1 6.5 L 1 9.5 C 1 10.324219 1.675781 11 2.5 11 L 4.351563 11 L 9 14.050781 Z M 8 3.800781 L 8 12.199219 L 5 10.230469 L 5 5.769531 Z M 10.730469 5.523438 L 10.019531 6.226563 L 11.792969 8 L 10.019531 9.773438 L 10.730469 10.480469 L 12.5 8.707031 L 14.269531 10.480469 L 14.980469 9.773438 L 13.207031 8 L 14.980469 6.226563 L 14.269531 5.523438 L 12.5 7.292969 Z M 2.5 6 L 4 6 L 4 10 L 2.5 10 C 2.21875 10 2 9.78125 2 9.5 L 2 6.5 C 2 6.21875 2.21875 6 2.5 6 Z "></path>
</g>
</svg>