<svg xmlns="http://www.w3.org/2000/svg" xmlns:xlink="http://www.w3.org/1999/xlink" viewBox="0 0 16 16" version="1.1">
<g id="surface1">
<path style="fill:#666666;stroke-width:0.1" d="M 9 1.949219 L 4.351563 5 L 2.5 5 C 1.675781 5 1 5.675781 1 6.5 L 1 9.5 C 1 10.324219 1.675781 11 2.5 11 L 4.351563 11 L 9 14.050781 Z M 8 3.800781 L 8 12.199219 L 5 10.230469 L 5 5.769531 Z M 10 5 L 10 6 C 11.109375 6 12 6.890625 12 8 C 12 9.109375 11.109375 10 10 10 L 10 11 C 11.652344 11 13 9.652344 13 8 C 13 6.347656 11.652344 5 10 5 Z M 2.5 6 L 4 6 L 4 10 L 2.5 10 C 2.21875 10 2 9.78125 2 9.5 L 2 6.5 C 2 6.21875 2.21875 6 2.5 6 Z M 10 7 L 10 9 C 10.550781 9 11 8.550781 11 8 C 11 7.449219 10.550781 7 10 7 Z "></path>
</g>
</svg>